<svg xmlns="http://www.w3.org/2000/svg" width="130" height="67.664" viewBox="0 0 130 67.664">
    <defs>
        <style>
            .cls-1{fill:#0b308e}.cls-2{fill:#ffe600}
        </style>
    </defs>
    <g id="심볼_13_1" data-name="심볼 13 – 1" transform="translate(-438.813 -50.068)">
        <path id="패스_8982" d="M443.083 660.284c.313-8.779-9.527-10.366-13.778-9.77a14.983 14.983 0 0 0-10.219 5.736.746.746 0 0 1-1.019.186 4.613 4.613 0 0 0-.937-.491.772.772 0 0 1-.38-1.146l.09-.136.023-.037L427.1 636.8c.452-.875 2.294-6.3-2.833-8.936-4.27-2.191-7.058-.113-8.258 1.179a.753.753 0 0 1-1.19-.105 6.506 6.506 0 0 0-7.01-2.765 6.27 6.27 0 0 0-4.938 5.347.768.768 0 0 1-1.031.625 15.907 15.907 0 0 0-7.16-.628l-.111-.9c-.959-6.224-7.013-5.961-7.256-5.954-5.463.158-6.731 4.041-6.82 4.224l-.015-.012c-1.618-1.895-4.156-.681-4.513-.521l-1.955.928a.762.762 0 0 1-.586.023 12.717 12.717 0 0 0-11.941 1.46.76.76 0 0 1-1.183-.46c-.626-2.786-3.067-9.32-12.209-9.32l-8.453.057c-5.438.172-7.251 4.128-7.3 7.179v19.093a6.672 6.672 0 0 0 1.328 4.3.772.772 0 0 1-.245 1.167 12.6 12.6 0 0 0-5.02 4.325.757.757 0 0 1-1.134.2 7.623 7.623 0 0 0-7.461-1.194c-5.9 1.895-4.587 7.687-4.577 7.752l3.611 15.927a6.947 6.947 0 0 0 7.2 5.687 9.16 9.16 0 0 0 1.761-.18l9.828-1.916a8.047 8.047 0 0 0 2.338-.878 5.611 5.611 0 0 0 2.891-6.206.771.771 0 0 1 .7-.9 19.683 19.683 0 0 0 6.149-1.547.765.765 0 0 1 .957.316 12.062 12.062 0 0 0 4.9 4.7 13.627 13.627 0 0 0 9.7.569.748.748 0 0 1 .647.083l1.361.874c3.213 2.127 8.008-3.311 8.008-3.311s.314.324.481.479a5.263 5.263 0 0 0-.956 6.648c.14.258 1.885 3.839 10.141 4.382 10.7.7 13.7-6.665 14.433-9.28a.763.763 0 0 1 1.033-.505 14.444 14.444 0 0 0 11.015-.037.759.759 0 0 1 .637.023l1.42.732a1.178 1.178 0 0 0 .609.1c5.433.027 6.808-3.951 7.152-6.186a.758.758 0 0 1 1.2-.51c5.641 4.245 14.6.47 14.6.47 13.4-6.178 6.051-13.129 6.051-13.129m-46.09-2.6s-2.667-3.507-5.62-2.314c-.142.058-2.253 1.1-3 1.467a.752.752 0 0 1-.547.042 13.351 13.351 0 0 0-11.113 1.939.759.759 0 0 1-1.064-.223c-2.454-3.77-5.1-2.688-5.244-2.669l-2.793 1.013a.762.762 0 0 1-.6-.04 11.864 11.864 0 0 0-5.574-1.28 13.493 13.493 0 0 0-7.443 2.529.759.759 0 0 1-1.178-.292 7.328 7.328 0 0 0-1.635-2.357.77.77 0 0 1 .365-1.311 10.8 10.8 0 0 0 7.022-4.9.762.762 0 0 1 1.194-.107c1.569 1.65 6 5.144 13.77 2.655a.754.754 0 0 1 .551.032 18.366 18.366 0 0 0 2.582 1.057 6.567 6.567 0 0 0 4.741-1.663.754.754 0 0 1 1.113.188 7.027 7.027 0 0 0 6.865 3.276l7.767-.584a14.852 14.852 0 0 0 5.176-1.308.76.76 0 0 1 1.059.571 6.093 6.093 0 0 0 .46 1.49.766.766 0 0 1-.795 1.074 7.621 7.621 0 0 0-6.052 1.71" class="cls-1" data-name="패스 8982" transform="translate(123.72 -570.922)"/>
        <path id="패스_8983" d="M367.036 639.638a7.608 7.608 0 0 0 1.357-2.142 8.356 8.356 0 0 0 .658-3.174 8.047 8.047 0 0 0-.684-3.395 8.61 8.61 0 0 0-2.122-2.814 9.5 9.5 0 0 0-3.3-1.9 13.22 13.22 0 0 0-4.14-.639l-7.935.069a4.568 4.568 0 0 0-3.051 1.175 3.864 3.864 0 0 0-1.164 3.088l.039 6.791-.039 12.677a3.99 3.99 0 0 0 1.177 3.094 4.519 4.519 0 0 0 3.056 1.16l7.932.063a13.486 13.486 0 0 0 4.137-.654 9.469 9.469 0 0 0 3.292-1.911 8.335 8.335 0 0 0 2.1-2.808 7.937 7.937 0 0 0 .686-3.4 8.463 8.463 0 0 0-.66-3.177 7.988 7.988 0 0 0-1.344-2.108m-6.369-5.446s.265 1.888-2.06 1.981l-2.6.013a.782.782 0 0 1-.789-.782v-2.1a.783.783 0 0 1 .79-.786l2.584.017s1.955 0 2.079 1.655m-2.089 12.533l-2.531.016a.783.783 0 0 1-.79-.783v-2.086a.783.783 0 0 1 .785-.784h2.559a1.9 1.9 0 0 1 2.059 1.772s.193 1.836-2.077 1.865" class="cls-2" data-name="패스 8983" transform="translate(112.381 -572.475)"/>
        <path id="패스_8984" d="M424.442 631.269c.127-.013 4.187-.531 4.593 3.589l.24 2.569a.784.784 0 0 0 .849.708l2.526-.221c3.893-.411 10.529.272 11.279 7.774.787 7.862-5.717 9.18-9.333 9.556l-7.907.6a4.419 4.419 0 0 1-4.619-3.9l-1.523-16.373c-.024-.279-.46-3.848 3.9-4.3m5.608 14.5l.194 2.084a.784.784 0 0 0 .851.709l2.6-.23c1.8-.285 1.891-1.365 1.891-1.953 0-.309-.125-1.858-2.229-1.67l-2.59.206a.784.784 0 0 0-.723.851z" class="cls-2" data-name="패스 8984" transform="translate(85.819 -574.392)"/>
        <path id="패스_8985" d="M463.355 636.521l1.027 3.383a.785.785 0 0 0 1.464.1l1.438-3.132s1.6-4.383 5.923-2.247c.686.339 3.185 2.167 1.272 5.416L463.81 658.39c-.822 1.416-3.007 3.284-5.567 1.576-3.459-2.309-1.066-5.311-.879-5.67l2.505-3.868a.786.786 0 0 0 .073-.71l-4.309-11.125a3.815 3.815 0 0 1 2.235-5.078s4.019-1.672 5.487 3.005" class="cls-2" data-name="패스 8985" transform="translate(73.391 -575.064)"/>
        <path id="패스_8986" d="M394.8 636.831a6.345 6.345 0 0 1 2.884 1.17.787.787 0 0 0 .84.083l2.912-1.485a3.2 3.2 0 0 1 1.029-.226 2.458 2.458 0 0 1 1.483.553 4.5 4.5 0 0 1 1.523 3.377l.079 11.374a3.992 3.992 0 0 1-.275 1.572 4.486 4.486 0 0 1-3.392 2.278.633.633 0 0 1-.368-.034l-2.782-1.236a.792.792 0 0 0-.823.119 6.434 6.434 0 0 1-2.924 1.156c-7.907.874-10.366-4.792-10.7-6.131-.93-3.724-.347-6.58 1.972-9.285a10.125 10.125 0 0 1 8.54-3.284m.021 12.49a2.617 2.617 0 0 0 2.5-1.643 3.168 3.168 0 0 0-.831-3.719 2.784 2.784 0 0 0-2.66-.351 2.875 2.875 0 0 0-1.742 2.241s-.508 3.379 2.736 3.472" class="cls-2" data-name="패스 8986" transform="translate(99.019 -576.129)"/>
        <path id="패스_8987" d="M421.365 680.621l2.915-1.7c.64-.367 4.044-1.862 4.695 3.308l1.146 11.43a15.355 15.355 0 0 1-.239 5.02 9.514 9.514 0 0 1-1.806 3.818 9.323 9.323 0 0 1-3.3 2.546c-3.376 1.593-7.836 1.571-11.978.044a4.506 4.506 0 0 1-2.324-2.238c-.471-1.245-.179-4.328 3.922-3.772.609.083 2.842.641 3.071.676 3.322.5 4.477-1.011 4.618-1.432a2.549 2.549 0 0 0 .16-1.2c-5.227 2.534-13.244.9-14.213-7.188-.877-7.32 7.68-12.732 13.338-9.316m-2.162 10.97a2.765 2.765 0 0 0 2.354-1.617 3.185 3.185 0 0 0-.273-2.878 2.664 2.664 0 0 0-2.545-1.242 2.878 2.878 0 1 0 .463 5.737" class="cls-2" data-name="패스 8987" transform="translate(90.355 -591.615)"/>
        <path id="패스_8988" d="M323.581 699.7l-3.66-16a3.705 3.705 0 0 1 3.128-4.485c3.025-.713 4.672.486 5.157 2.524l3.059 13.321a.784.784 0 0 0 .914.595l5.36-1.036c2.107-.358 3.926.324 4.3 2.608a3.309 3.309 0 0 1-2.79 4.012l-10.108 1.961a4.324 4.324 0 0 1-5.36-3.507" class="cls-2" data-name="패스 8988" transform="translate(122.11 -591.808)"/>
        <path id="패스_8989" d="M359.107 680.066c.067 1.366-.38 1.862-.652 2.081a4.566 4.566 0 0 1-2.542.741l-6.454.3a.786.786 0 0 0-.011 1.569h.058a14.371 14.371 0 0 0 5.235-.859c3.388-1.216 4.163.812 4.295 1.166.567 1.524-.054 2.81-1.431 3.847-2.9 2.181-14.409 4.776-18.97-3.3a8.669 8.669 0 0 1-.359-7.443 10.466 10.466 0 0 1 9.777-6.115c8.336 0 10.949 5.84 11.053 8m-9.809-.55a.786.786 0 0 0 .48-1.375 2.029 2.029 0 0 0-1.46-.512 1.993 1.993 0 0 0-1.457.654.787.787 0 0 0 .612 1.324z" class="cls-2" data-name="패스 8989" transform="translate(116.097 -589.055)"/>
        <path id="패스_8990" d="M498.486 675.856a2.29 2.29 0 0 1-.015 2.181 2.474 2.474 0 0 1-.808.781 7.309 7.309 0 0 1-1.406.67l-6.083 2.178a.786.786 0 0 0 .449 1.5l.055-.015a19.365 19.365 0 0 0 4.756-2.352c3.062-2.118 4.314-.345 4.533-.036a2.933 2.933 0 0 1-.008 3.59c-1.773 2.331-6.223 5.167-11.785 5.4a10.537 10.537 0 0 1-7.641-2.6 8.7 8.7 0 0 1-2.519-7.013 9.909 9.909 0 0 1 3.761-6.619 11.808 11.808 0 0 1 3.8-2.088 12.075 12.075 0 0 1 10.512 1.371 6.362 6.362 0 0 1 2.4 3.052m-9.47 2.315a.787.787 0 0 0 .062-1.454 2.082 2.082 0 0 0-1.623-.038 2.009 2.009 0 0 0-1.2 1.05.787.787 0 0 0 .972 1.087z" class="cls-2" data-name="패스 8990" transform="translate(65.091 -588.615)"/>
        <path id="패스_8991" d="M464.118 682.1l.517 11.331a3.559 3.559 0 0 1-3.7 3.862 1.184 1.184 0 0 1-.307-.032l-2.8-1.325a.794.794 0 0 0-.756.048 12.143 12.143 0 0 1-2.557 1.241 11.232 11.232 0 0 1-6.813-.378 6.432 6.432 0 0 1-3.755-5.264l-.4-8.653a3.887 3.887 0 0 1 4.076-3.926c3.882-.142 4.163 3.017 4.186 3.535l.319 7.1a2.08 2.08 0 0 0 4.137-.2l-.325-6.987a3.725 3.725 0 0 1 3.955-3.895s4.006-.39 4.23 3.547" class="cls-2" data-name="패스 8991" transform="translate(77.602 -591.356)"/>
        <path id="패스_8992" d="M384.3 679.1a6.345 6.345 0 0 1 2.767 1.426.784.784 0 0 0 .829.157l3.035-1.216a2.337 2.337 0 0 1 2.473.552 4.816 4.816 0 0 1 1.213 3.785l-.948 11.051a4 4 0 0 1-.415 1.541 4.487 4.487 0 0 1-3.584 1.962.632.632 0 0 1-.363-.068l-2.659-1.482a.791.791 0 0 0-.831.045 6.41 6.41 0 0 1-3.016.887c-7.953.155-9.818-5.4-10.1-7.071a9.364 9.364 0 0 1 2.8-9.069 10.121 10.121 0 0 1 8.8-2.5m-1.101 12.438a2.62 2.62 0 0 0 2.635-1.412 3.169 3.169 0 0 0-.492-3.779 2.785 2.785 0 0 0-2.618-.589 2.874 2.874 0 0 0-1.937 2.074s-.811 3.321 2.412 3.706" class="cls-2" data-name="패스 8992" transform="translate(103.099 -591.488)"/>
    </g>
</svg>
